<svg width="20" height="20" viewBox="0 0 20 20" fill="none" xmlns="http://www.w3.org/2000/svg">
<path d="M16.0672 15.1828C16.1252 15.2409 16.1713 15.3098 16.2027 15.3857C16.2342 15.4616 16.2503 15.5429 16.2503 15.625C16.2503 15.7071 16.2342 15.7885 16.2027 15.8643C16.1713 15.9402 16.1252 16.0091 16.0672 16.0672C16.0091 16.1253 15.9402 16.1713 15.8643 16.2028C15.7884 16.2342 15.7071 16.2504 15.625 16.2504C15.5429 16.2504 15.4615 16.2342 15.3857 16.2028C15.3098 16.1713 15.2409 16.1253 15.1828 16.0672L9.99998 10.8836L4.81717 16.0672C4.69989 16.1845 4.54083 16.2504 4.37498 16.2504C4.20913 16.2504 4.05007 16.1845 3.93279 16.0672C3.81552 15.9499 3.74963 15.7909 3.74963 15.625C3.74963 15.4592 3.81552 15.3001 3.93279 15.1828L9.11639 10L3.93279 4.8172C3.81552 4.69992 3.74963 4.54086 3.74963 4.37501C3.74963 4.20916 3.81552 4.0501 3.93279 3.93282C4.05007 3.81555 4.20913 3.74966 4.37498 3.74966C4.54083 3.74966 4.69989 3.81555 4.81717 3.93282L9.99998 9.11642L15.1828 3.93282C15.3001 3.81555 15.4591 3.74966 15.625 3.74966C15.7908 3.74966 15.9499 3.81555 16.0672 3.93282C16.1844 4.0501 16.2503 4.20916 16.2503 4.37501C16.2503 4.54086 16.1844 4.69992 16.0672 4.8172L10.8836 10L16.0672 15.1828Z" fill="#343330"/>
</svg>
