
<svg width="33" height="32" viewBox="0 0 33 32" fill="none" xmlns="http://www.w3.org/2000/svg">
<g id="Group 48097349">
<path id="Vector" d="M32.2934 12.8662H31.0047V12.7998H16.605V19.1997H25.6472C24.328 22.9252 20.7833 25.5996 16.605 25.5996C11.3036 25.5996 7.0053 21.3013 7.0053 15.9997C7.0053 10.6982 11.3036 6.3999 16.605 6.3999C19.0522 6.3999 21.2785 7.32308 22.9737 8.83106L27.4992 4.30553C24.6416 1.64237 20.8193 0 16.605 0C7.76928 0 0.605469 7.16389 0.605469 15.9997C0.605469 24.8356 7.76928 31.9995 16.605 31.9995C25.4408 31.9995 32.6046 24.8356 32.6046 15.9997C32.6046 14.927 32.4942 13.8798 32.2934 12.8662Z" fill="#FFC107"/>
<path id="Vector_2" d="M2.4502 8.55266L7.70686 12.4078C9.12922 8.88626 12.5739 6.3999 16.605 6.3999C19.0522 6.3999 21.2785 7.32308 22.9737 8.83106L27.4991 4.30553C24.6416 1.64237 20.8193 0 16.605 0C10.4596 0 5.13012 3.46954 2.4502 8.55266Z" fill="#FF3D00"/>
<path id="Vector_3" d="M16.6049 31.9988C20.7376 31.9988 24.4927 30.4172 27.3319 27.8452L22.38 23.6549C20.7736 24.8717 18.7769 25.5989 16.6049 25.5989C12.4435 25.5989 8.90995 22.9453 7.57879 19.2422L2.36133 23.2621C5.00926 28.4436 10.3867 31.9988 16.6049 31.9988Z" fill="#4CAF50"/>
<path id="Vector_4" d="M32.2939 12.8652H31.0051V12.7988H16.6055V19.1987H25.6476C25.014 20.9883 23.8629 22.5315 22.3781 23.6555C22.3789 23.6547 22.3797 23.6547 22.3805 23.6539L27.3324 27.8442C26.982 28.1626 32.605 23.9987 32.605 15.9988C32.605 14.926 32.4946 13.8788 32.2939 12.8652Z" fill="#1976D2"/>
</g>
</svg>
