<svg xmlns="http://www.w3.org/2000/svg" width="24" height="24" viewBox="0 0 24 24" fill="none">
<path fill-rule="evenodd" clip-rule="evenodd" d="M11.9613 20.7603C11.8232 20.7598 11.6892 20.7137 11.5801 20.629C8.10507 17.929 5.7113 15.604 4.03629 13.3102C1.89878 10.3789 1.41128 7.67267 2.58629 5.26641C3.42379 3.54765 5.83006 2.14139 8.64257 2.96014C9.98354 3.34748 11.1535 4.17814 11.9613 5.31641C12.7692 4.17814 13.9391 3.34748 15.2801 2.96014C18.0864 2.15389 20.4989 3.54765 21.3364 5.26641C21.6806 5.97122 21.8821 6.70177 21.9413 7.45617C21.5226 7.28366 21.0841 7.14949 20.6302 7.05801C20.5495 6.63364 20.4101 6.2199 20.2125 5.81578C19.5875 4.56578 17.7125 3.57202 15.625 4.15952C14.2714 4.55954 13.15 5.51298 12.5375 6.78454C12.4412 7.01899 12.2128 7.17206 11.9593 7.17206C11.7059 7.17206 11.4775 7.01899 11.3812 6.78454C10.7731 5.50953 9.64991 4.55456 8.29368 4.15952C7.88741 4.04152 7.46673 3.98052 7.04367 3.97827C5.67993 3.9252 4.39839 4.62968 3.71241 5.80953C2.74365 7.79704 3.18115 10.0096 5.04991 12.5658C7.03591 15.1274 9.36145 17.4067 11.9625 19.3409C12.425 18.9972 12.8789 18.6425 13.3238 18.2774C13.5598 18.6101 13.8234 18.9219 14.1112 19.2095C13.5551 19.6719 12.9663 20.1444 12.3426 20.629C12.2335 20.7137 12.0994 20.7598 11.9613 20.7603Z" fill="black"/>
<path d="M22.5026 13.8202H19.5026V10.8201C19.5026 10.7406 19.471 10.6643 19.4147 10.608C19.3584 10.5517 19.2821 10.5201 19.2026 10.5201C19.123 10.5201 19.0467 10.5517 18.9904 10.608C18.9342 10.6643 18.9026 10.7406 18.9026 10.8201V13.8202H15.9025C15.823 13.8202 15.7467 13.8518 15.6904 13.908C15.6341 13.9643 15.6025 14.0406 15.6025 14.1202C15.6025 14.1997 15.6341 14.276 15.6904 14.3323C15.7467 14.3886 15.823 14.4202 15.9025 14.4202H18.9026V17.4202C18.9026 17.4997 18.9342 17.5761 18.9904 17.6323C19.0467 17.6886 19.123 17.7202 19.2026 17.7202C19.2821 17.7202 19.3584 17.6886 19.4147 17.6323C19.471 17.5761 19.5026 17.4997 19.5026 17.4202V14.4202H22.5026C22.5821 14.4202 22.6585 14.3886 22.7147 14.3323C22.771 14.276 22.8026 14.1997 22.8026 14.1202C22.8026 14.0406 22.771 13.9643 22.7147 13.908C22.6585 13.8518 22.5821 13.8202 22.5026 13.8202Z" fill="black" stroke="black" stroke-width="0.790545"/>
</svg>