
<svg width="21" height="20" viewBox="0 0 21 20" fill="none" xmlns="http://www.w3.org/2000/svg">
<g id="Frame 1686560656">
<g id="Group">
<path id="Vector" d="M7.68911 18.485L7.0612 18.1932V14.6519H2.84606C2.01113 14.6519 1.33203 13.972 1.33203 13.1379V3.18001C1.33203 2.3451 2.01113 1.66602 2.84606 1.66602H18.1383C18.9809 1.66602 19.6654 2.35121 19.6654 3.19376V13.1379C19.6654 13.972 18.9855 14.6519 18.1513 14.6519H12.2358L7.68911 18.485ZM2.84606 2.42989C2.4328 2.42989 2.09592 2.76676 2.09592 3.18001V13.1371C2.09592 13.5519 2.4328 13.888 2.84606 13.888H7.44314L7.82509 14.2699V17.372L11.85 13.9789L12.096 13.888H18.1513C18.5654 13.888 18.9015 13.5519 18.9015 13.1379V3.19376C18.9015 2.77287 18.5593 2.42989 18.1383 2.42989H2.84606Z" fill="#2563EB" stroke="#2563EB" stroke-width="0.5"/>
<path id="Vector_2" d="M10.4997 12.1049C10.7433 12.1049 10.9407 11.9074 10.9407 11.6638C10.9407 11.4201 10.7433 11.2227 10.4997 11.2227C10.2561 11.2227 10.0586 11.4201 10.0586 11.6638C10.0586 11.9074 10.2561 12.1049 10.4997 12.1049Z" fill="#2563EB" stroke="#2563EB" stroke-width="0.577433"/>
<path id="Vector_3" d="M10.9394 10.3333H10.0572V9.69373C10.0572 8.98266 10.4604 8.33598 11.1361 7.96457C11.6407 7.68666 11.9009 7.13527 11.8003 6.56182C11.7077 6.03072 11.2719 5.59579 10.7418 5.50315C10.3413 5.43169 9.95227 5.53491 9.64793 5.79076C9.34712 6.04307 9.1751 6.41273 9.1751 6.80444V7.24555H8.29297V6.80444C8.29297 6.15159 8.58054 5.53579 9.08072 5.11497C9.58089 4.69415 10.2425 4.52035 10.8944 4.63328C11.7836 4.78943 12.5131 5.51903 12.6684 6.4092C12.8342 7.34524 12.3896 8.28129 11.5613 8.7374C11.1723 8.95178 10.9394 9.30908 10.9394 9.69373V10.3333Z" fill="#2563EB" stroke="#2563EB" stroke-width="0.577433"/>
</g>
</g>
</svg>
