<svg width="24" height="24" viewBox="0 0 24 24" fill="none" xmlns="http://www.w3.org/2000/svg">
<path d="M21.7953 20.2054L17.3431 15.7513C18.678 14.0118 19.3013 11.8296 19.0864 9.64741C18.8715 7.46523 17.8347 5.44649 16.1861 4.0007C14.5376 2.55491 12.4008 1.79032 10.2092 1.86205C8.01768 1.93377 5.93546 2.83643 4.38497 4.38692C2.83448 5.93742 1.93182 8.01963 1.86009 10.2112C1.78837 12.4027 2.55295 14.5395 3.99875 16.1881C5.44454 17.8366 7.46328 18.8735 9.64545 19.0884C11.8276 19.3032 14.0098 18.68 15.7494 17.3451L20.2053 21.802C20.31 21.9066 20.4342 21.9896 20.5709 22.0463C20.7077 22.1029 20.8542 22.132 21.0022 22.132C21.1502 22.132 21.2967 22.1029 21.4335 22.0463C21.5702 21.9896 21.6944 21.9066 21.7991 21.802C21.9037 21.6973 21.9867 21.5731 22.0434 21.4363C22.1 21.2996 22.1291 21.1531 22.1291 21.0051C22.1291 20.8571 22.1 20.7105 22.0434 20.5738C21.9867 20.4371 21.9037 20.3129 21.7991 20.2082L21.7953 20.2054ZM4.12438 10.5013C4.12438 9.24048 4.49827 8.00794 5.19877 6.95958C5.89926 5.91121 6.8949 5.09411 8.05978 4.6116C9.22466 4.1291 10.5065 4.00285 11.7431 4.24883C12.9797 4.49481 14.1156 5.10197 15.0072 5.99353C15.8988 6.88509 16.5059 8.02101 16.7519 9.25764C16.9979 10.4943 16.8716 11.7761 16.3891 12.9409C15.9066 14.1058 15.0895 15.1015 14.0411 15.802C12.9928 16.5024 11.7602 16.8763 10.4994 16.8763C8.80916 16.8746 7.18866 16.2024 5.9935 15.0072C4.79833 13.8121 4.12612 12.1916 4.12438 10.5013Z" fill="black" fill-opacity="0.4"/>
</svg>
